<svg aria-hidden="true" style="width:0;height:0;position:absolute;overflow:hidden" xmlns="http://www.w3.org/2000/svg"><defs><symbol id="icon-shopping-cart" viewBox="0 0 36 32"><path d="m33.008 18.832 2.955-13A1.5 1.5 0 0 0 34.5 4H9.951l-.573-2.801A1.5 1.5 0 0 0 7.908 0H1.5A1.5 1.5 0 0 0 0 1.5v1A1.5 1.5 0 0 0 1.5 4h4.368l4.391 21.465A3.499 3.499 0 0 0 12.001 32a3.5 3.5 0 0 0 2.448-6h13.103a3.5 3.5 0 1 0 3.975-.65l.345-1.517a1.5 1.5 0 0 0-1.463-1.832H13.633l-.409-2h18.322c.7 0 1.307-.485 1.463-1.168z"/></symbol><symbol id="icon-arrow-right" viewBox="0 0 32 32"><path d="M0 0h32v32H0z"/></symbol><symbol id="icon-arrow-right-2" viewBox="0 0 32 32"><path d="m19.4 27.4 10-10c.354-.36.572-.855.572-1.4s-.218-1.04-.572-1.4l-10-10a2 2 0 1 0-2.805 2.796l.005.004 6.56 6.6H4a2 2 0 1 0 0 4h19.18l-6.6 6.6c-.354.36-.572.855-.572 1.4s.218 1.04.572 1.4a1.997 1.997 0 0 0 2.84.001z"/></symbol><symbol id="icon-burger" viewBox="0 0 46 32"><path d="M0 2.286h45.714M0 16h45.714M0 29.714h45.714"/></symbol><symbol id="button__icon-dark" viewBox="0 0 26 32"><path fill="none" stroke="#d41443" style="stroke:var(--color1,#d41443)" stroke-linejoin="round" stroke-linecap="round" stroke-width="6.4" d="M5.184 3.2 19.328 16 5.184 28.8"/></symbol><symbol id="button__icon-light" viewBox="0 0 26 32"><path fill="none" stroke="#fff" style="stroke:var(--color2,#fff)" stroke-linejoin="round" stroke-linecap="round" stroke-width="6.4" d="M5.184 3.2 19.328 16 5.184 28.8"/></symbol><symbol id="icon-close" viewBox="0 0 32 32"><path d="m2.52 2 26.96 28M2 29.48 30 2.52"/></symbol><symbol id="icon-commas" viewBox="0 0 43 32"><path d="M32.016 0c1.92 0 3.752.52 5.464 1.56a11.766 11.766 0 0 1 4.145 4.425l.031.063c.976 1.905 1.548 4.155 1.548 6.539 0 .125-.002.25-.005.375v-.018c0 2.64-.64 5.224-1.928 7.736-.432.912-1.2 2.08-2.32 3.52a63.452 63.452 0 0 1-3.24 3.738l.032-.034L31.695 32l-2.896-4.816a22.213 22.213 0 0 0 5.306-4.643l.03-.037c1.544-1.824 2.32-3.488 2.32-5.008 0-.784-.176-1.408-.52-1.888a8.294 8.294 0 0 1-4.952 1.624h-.068.003a6.56 6.56 0 0 1-3.811-1.245l.019.013a8.635 8.635 0 0 1-2.938-3.077l-.022-.043a7.284 7.284 0 0 1-1.152-3.901v-.003c0-1.52.448-2.968 1.352-4.36a10.3 10.3 0 0 1 3.356-3.359l.044-.025A8.05 8.05 0 0 1 32.002 0h.004zM8.936 0c1.928 0 3.752.52 5.464 1.56a11.766 11.766 0 0 1 4.145 4.425l.031.063c.976 1.905 1.548 4.155 1.548 6.539 0 .125-.002.25-.005.375v-.018c0 1.864-.24 3.536-.704 5.008-.48 1.52-1.28 3.096-2.448 4.744a37.048 37.048 0 0 1-3.166 3.928l.022-.024c-.992 1.088-2.704 2.88-5.144 5.4l-2.896-4.816a22.213 22.213 0 0 0 5.306-4.643l.03-.037c1.544-1.824 2.32-3.488 2.32-5.008 0-.784-.176-1.408-.52-1.888a8.294 8.294 0 0 1-4.952 1.624h-.068.003a6.56 6.56 0 0 1-3.811-1.245L4.11 16a8.635 8.635 0 0 1-2.938-3.077l-.022-.043A7.284 7.284 0 0 1-.002 8.979v-.003c0-1.52.432-2.968 1.28-4.36a10.314 10.314 0 0 1 3.371-3.359l.045-.025A8.05 8.05 0 0 1 8.93 0h.004z"/></symbol><symbol id="icon-ellipse-cust" viewBox="0 0 32 32"><path d="M32 16c0 8.837-7.163 16-16 16S0 24.837 0 16 7.163 0 16 0s16 7.163 16 16z"/></symbol><symbol id="icon-ellipse-hero" viewBox="0 0 32 32"><path d="M32 16c0 8.837-7.163 16-16 16S0 24.837 0 16 7.163 0 16 0s16 7.163 16 16z"/></symbol><symbol id="icon-facebook" viewBox="0 0 16 32"><path d="M14.138 15.971h-4.029v14.865H4V15.971H1.091v-5.236H4v-3.36c0-2.429 1.135-6.211 6.167-6.211l4.524.015v5.076h-3.287c-.538 0-1.295.276-1.295 1.425v3.069h4.567l-.538 5.222z"/></symbol><symbol id="icon-gh" viewBox="0 0 32 32"><path d="M16 0C7.2 0 0 7.2 0 16c0 7.504 5.264 14.304 12.256 16v-5.28a3.936 3.936 0 0 1-4.31-1.9l-.01-.02c-.368-.64-1.008-1.28-1.68-1.248l-.16-1.856c1.44-.128 2.704.88 3.44 2.128.336.56.72.896 1.216 1.04.48.128.976.064 1.568-.144.16-1.184.688-1.632 1.104-2.24v-.016c-4.16-.624-5.824-2.832-6.496-4.576a7.206 7.206 0 0 1-.433-2.483c0-1.728.597-3.317 1.596-4.572l-.011.015c.032-.032.08-.128.064-.192-.72-2.144.16-3.92.176-4.096.816.24.96-.256 3.552 1.328l.448.272c.192.112.128.048.32.032a14.935 14.935 0 0 1 3.36-.48c1.136.032 2.272.192 3.408.48l.144.032.128-.064c3.248-1.968 3.136-1.328 4-1.6.032.176.88 1.984.176 4.096-.096.288 2.816 2.944 1.216 7.232-.672 1.744-2.32 3.952-6.496 4.576.528.816 1.184 1.248 1.168 2.928V32C26.736 30.304 32 23.504 32 16c0-8.8-7.2-16-16-16z"/></symbol><symbol id="icon-home" viewBox="0 0 35 32"><path d="M34.473 15.389a1.45 1.45 0 0 0-.141-2.237l-.004-.003L18.735.436c-.344-.275-.785-.441-1.265-.441s-.921.166-1.27.444l.004-.003L.553 13.847a1.453 1.453 0 0 0-.089 2.239l.001.001.407.378c.64.64 1.687.698 2.327.175l1.164-.989v14.313c0 .873.785 1.6 1.745 1.6h6.08c.931 0 1.687-.727 1.687-1.6V19.928h7.796v10.007c0 .873.669 1.6 1.6 1.6h6.458c.96 0 1.716-.727 1.716-1.6V15.826s.291.291.727.582c.378.349 1.222.087 1.862-.582l.436-.436z"/></symbol><symbol id="icon-telegram" viewBox="0 0 44 32"><path d="m17.34 21.04-.68 8.86c.98 0 1.4-.38 1.9-.84l4.52-4.04 9.4 6.4c1.7.9 2.92.44 3.38-1.46L42 3c.54-2.38-.92-3.3-2.6-2.72L3.22 13.24C.76 14.12.8 15.4 2.82 16l9.24 2.68 21.5-12.54c1-.64 1.92-.28 1.16.34L17.34 21.04z"/></symbol><symbol id="icon-menu" viewBox="0 0 32 32"><path d="M6.4 11.734V9.6h19.2v2.134H6.4zm0 5.332h19.2v-2.133H6.4v2.133zm0 5.334h19.2v-2.134H6.4V22.4z"/></symbol><symbol id="icon-menu-close" viewBox="0 0 32 32"><path d="M23.734 10.304 22.23 8.8l-5.963 5.962L10.305 8.8l-1.504 1.504 5.962 5.962-5.962 5.963 1.504 1.504 5.962-5.963 5.963 5.963 1.504-1.504-5.963-5.963 5.963-5.962z"/></symbol><symbol id="icon-modal-contacts-close" viewBox="0 0 32 32"><path d="m26.667 7.303-1.97-1.97-7.808 7.808-7.808-7.808-1.97 1.97 7.808 7.808-7.808 7.808 1.97 1.97 7.808-7.808 7.808 7.808 1.97-1.97-7.808-7.808 7.808-7.808z"/></symbol><symbol id="icon-points" viewBox="0 0 139 32"><path d="M85.333 16c0 8.837-7.163 16-16 16s-16-7.163-16-16 7.163-16 16-16 16 7.163 16 16zM32 16c0 8.837-7.163 16-16 16S0 24.837 0 16 7.163 0 16 0s16 7.163 16 16zM138.667 16c0 8.837-7.163 16-16 16s-16-7.163-16-16 7.163-16 16-16 16 7.163 16 16z"/></symbol><symbol id="icon-icecream" viewBox="0 0 32 32"><path d="M20.804 10.742c1.448-3.62-1.789-4.217-1.789-4.174 1.022-2.556-1.022-4.26-2.896-4.26s-1.789.853-1.789.853 1.022-.213 1.022.596c0 .81-.938.767-1.874 1.704-.938.937-.49.81-.554.81 1.948-.128 3.088 1.885 5.239 1.149-2.13 1.065-2.641-.628-4.941-.713-.298 0-2.002-.33-2.002 2.928 2.492.288 3.578 2.002 6.943 1.619-3.791 1.405-8.54-4.409-9.2 1.959 0 1.363 1.021 2.048 1.021 2.048h11.757c2.342-1.022 1.193-4.732-.937-4.519zM16.072 31 21.4 15.931H10.627L16.072 31z"/></symbol></defs></svg>