<svg aria-hidden="true" style="position: absolute; width: 0; height: 0; overflow: hidden;" version="1.1" xmlns="http://www.w3.org/2000/svg" xmlns:xlink="http://www.w3.org/1999/xlink">
    <defs>
        <symbol id="icon-shopping-cart" viewBox="0 0 36 32">
            <path d="M33.008 18.832l2.955-13c0.213-0.939-0.5-1.832-1.463-1.832h-24.549l-0.573-2.801c-0.143-0.698-0.757-1.199-1.47-1.199h-6.408c-0.828 0-1.5 0.672-1.5 1.5v1c0 0.828 0.672 1.5 1.5 1.5h4.368l4.391 21.465c-1.050 0.604-1.758 1.737-1.758 3.035 0 1.933 1.567 3.5 3.5 3.5s3.5-1.567 3.5-3.5c0-0.98-0.403-1.865-1.052-2.5h13.103c-0.648 0.635-1.051 1.52-1.051 2.5 0 1.933 1.567 3.5 3.5 3.5s3.5-1.567 3.5-3.5c0-1.386-0.806-2.583-1.974-3.15l0.345-1.517c0.213-0.939-0.5-1.832-1.463-1.832h-16.776l-0.409-2h18.322c0.7 0 1.307-0.485 1.463-1.168z"></path>
        </symbol>
        <symbol id="icon-arrow-right" viewBox="0 0 32 32">
            <path d="M0 0h32v32h-32z"></path>
        </symbol>
        <symbol id="icon-arrow-right-2" viewBox="0 0 32 32">
            <path d="M19.4 27.4l10-10c0.354-0.36 0.572-0.855 0.572-1.4s-0.218-1.040-0.572-1.4l-10-10c-0.369-0.488-0.948-0.8-1.6-0.8-1.105 0-2 0.895-2 2 0 0.652 0.312 1.231 0.795 1.596l0.005 0.004 6.56 6.6h-19.16c-1.105 0-2 0.895-2 2s0.895 2 2 2v0h19.18l-6.6 6.6c-0.354 0.36-0.572 0.855-0.572 1.4s0.218 1.040 0.572 1.4l-0-0c0.363 0.365 0.865 0.592 1.42 0.592s1.058-0.226 1.42-0.591l0-0z"></path>
        </symbol>
        <symbol id="icon-burger" viewBox="0 0 46 32">
            <path d="M0 2.286h45.714M0 16h45.714M0 29.714h45.714"></path>
        </symbol>
        <symbol id="button__icon-dark" viewBox="0 0 26 32">
            <path fill="none" stroke="#d41443" style="stroke: var(--color1, #d41443)" stroke-linejoin="round" stroke-linecap="round" stroke-miterlimit="4" stroke-width="6.4" d="M5.184 3.2l14.144 12.8-14.144 12.8"></path>
        </symbol>
        <symbol id="button__icon-light" viewBox="0 0 26 32">
            <path fill="none" stroke="#fff" style="stroke: var(--color2, #fff)" stroke-linejoin="round" stroke-linecap="round" stroke-miterlimit="4" stroke-width="6.4" d="M5.184 3.2l14.144 12.8-14.144 12.8"></path>
        </symbol>
        <symbol id="icon-close" viewBox="0 0 32 32">
            <path d="M2.52 2l26.96 28M2 29.48l28-26.96"></path>
        </symbol>
        <symbol id="icon-commas" viewBox="0 0 43 32">
            <path d="M32.016 0c1.92 0 3.752 0.52 5.464 1.56 1.767 1.11 3.185 2.627 4.145 4.425l0.031 0.063c0.976 1.905 1.548 4.155 1.548 6.539 0 0.125-0.002 0.25-0.005 0.375l0-0.018c0 2.64-0.64 5.224-1.928 7.736-0.432 0.912-1.2 2.080-2.32 3.52-1.098 1.367-2.147 2.573-3.24 3.738l0.032-0.034-4.048 4.096-2.896-4.816c2.063-1.301 3.824-2.853 5.306-4.643l0.030-0.037c1.544-1.824 2.32-3.488 2.32-5.008 0-0.784-0.176-1.408-0.52-1.888-1.367 1.015-3.088 1.624-4.952 1.624-0.023 0-0.045-0-0.068-0l0.003 0c-1.424-0.010-2.739-0.47-3.811-1.245l0.019 0.013c-1.238-0.781-2.239-1.833-2.938-3.077l-0.022-0.043c-0.714-1.105-1.142-2.454-1.152-3.901v-0.003c0-1.52 0.448-2.968 1.352-4.36 0.863-1.39 2.005-2.527 3.356-3.359l0.044-0.025c1.204-0.762 2.667-1.219 4.236-1.232l0.004-0zM8.936 0c1.928 0 3.752 0.52 5.464 1.56 1.767 1.11 3.185 2.627 4.145 4.425l0.031 0.063c0.976 1.905 1.548 4.155 1.548 6.539 0 0.125-0.002 0.25-0.005 0.375l0-0.018c0 1.864-0.24 3.536-0.704 5.008-0.48 1.52-1.28 3.096-2.448 4.744-1.023 1.455-2.055 2.729-3.166 3.928l0.022-0.024c-0.992 1.088-2.704 2.88-5.144 5.4l-2.896-4.816c2.063-1.301 3.824-2.853 5.306-4.643l0.030-0.037c1.544-1.824 2.32-3.488 2.32-5.008 0-0.784-0.176-1.408-0.52-1.888-1.367 1.015-3.088 1.624-4.952 1.624-0.023 0-0.045-0-0.068-0l0.003 0c-1.424-0.010-2.739-0.47-3.811-1.245l0.019 0.013c-1.238-0.781-2.239-1.833-2.938-3.077l-0.022-0.043c-0.714-1.105-1.142-2.454-1.152-3.901v-0.003c0-1.52 0.432-2.968 1.28-4.36 0.867-1.391 2.015-2.528 3.371-3.359l0.045-0.025c1.204-0.762 2.667-1.219 4.236-1.232l0.004-0z"></path>
        </symbol>
        <symbol id="icon-ellipse-cust" viewBox="0 0 32 32">
            <path  d="M32 16c0 8.837-7.163 16-16 16s-16-7.163-16-16c0-8.837 7.163-16 16-16s16 7.163 16 16z"></path>
        </symbol>
        <symbol id="icon-ellipse-hero" viewBox="0 0 32 32">
            <path d="M32 16c0 8.837-7.163 16-16 16s-16-7.163-16-16c0-8.837 7.163-16 16-16s16 7.163 16 16z"></path>
        </symbol>
        <symbol id="icon-facebook" viewBox="0 0 16 32">
            <path d="M14.138 15.971h-4.029v14.865h-6.109v-14.865h-2.909v-5.236h2.909v-3.36c0-2.429 1.135-6.211 6.167-6.211l4.524 0.015v5.076h-3.287c-0.538 0-1.295 0.276-1.295 1.425v3.069h4.567l-0.538 5.222z"></path>
        </symbol>
        <symbol id="icon-gh" viewBox="0 0 32 32">
            <path d="M16 0c-8.8 0-16 7.2-16 16 0 7.504 5.264 14.304 12.256 16v-5.28c-0.265 0.064-0.569 0.1-0.882 0.1-1.47 0-2.752-0.806-3.428-2l-0.010-0.020c-0.368-0.64-1.008-1.28-1.68-1.248l-0.16-1.856c1.44-0.128 2.704 0.88 3.44 2.128 0.336 0.56 0.72 0.896 1.216 1.040 0.48 0.128 0.976 0.064 1.568-0.144 0.16-1.184 0.688-1.632 1.104-2.24v-0.016c-4.16-0.624-5.824-2.832-6.496-4.576-0.274-0.739-0.433-1.593-0.433-2.483 0-1.728 0.597-3.317 1.596-4.572l-0.011 0.015c0.032-0.032 0.080-0.128 0.064-0.192-0.72-2.144 0.16-3.92 0.176-4.096 0.816 0.24 0.96-0.256 3.552 1.328l0.448 0.272c0.192 0.112 0.128 0.048 0.32 0.032 1.088-0.288 2.24-0.448 3.36-0.48 1.136 0.032 2.272 0.192 3.408 0.48l0.144 0.032 0.128-0.064c3.248-1.968 3.136-1.328 4-1.6 0.032 0.176 0.88 1.984 0.176 4.096-0.096 0.288 2.816 2.944 1.216 7.232-0.672 1.744-2.32 3.952-6.496 4.576 0.528 0.816 1.184 1.248 1.168 2.928v6.608c6.992-1.696 12.256-8.496 12.256-16 0-8.8-7.2-16-16-16z"></path>
        </symbol>
        <symbol id="icon-home" viewBox="0 0 35 32">
            <path d="M34.473 15.389c0.283-0.266 0.459-0.642 0.459-1.060 0-0.484-0.236-0.913-0.6-1.177l-0.004-0.003-15.593-12.713c-0.344-0.275-0.785-0.441-1.265-0.441s-0.921 0.166-1.27 0.444l0.004-0.003-15.651 13.411c-0.349 0.268-0.572 0.686-0.572 1.156 0 0.43 0.187 0.816 0.483 1.083l0.001 0.001 0.407 0.378c0.64 0.64 1.687 0.698 2.327 0.175l1.164-0.989v14.313c0 0.873 0.785 1.6 1.745 1.6h6.080c0.931 0 1.687-0.727 1.687-1.6v-10.036h7.796v10.007c0 0.873 0.669 1.6 1.6 1.6h6.458c0.96 0 1.716-0.727 1.716-1.6v-14.109s0.291 0.291 0.727 0.582c0.378 0.349 1.222 0.087 1.862-0.582l0.436-0.436z"></path>
        </symbol>
        <symbol id="icon-telegram" viewBox="0 0 44 32">
            <path d="M17.34 21.040l-0.68 8.86c0.98 0 1.4-0.38 1.9-0.84l4.52-4.040 9.4 6.4c1.7 0.9 2.92 0.44 3.38-1.46l6.14-26.96c0.54-2.38-0.92-3.3-2.6-2.72l-36.18 12.96c-2.46 0.88-2.42 2.16-0.4 2.76l9.24 2.68 21.5-12.54c1-0.64 1.92-0.28 1.16 0.34l-17.38 14.56z"></path>
        </symbol>
        <symbol id="icon-menu" viewBox="0 0 32 32">
            <path d="M6.4 11.734v-2.134h19.2v2.134h-19.2zM6.4 17.066h19.2v-2.133h-19.2v2.133zM6.4 22.4h19.2v-2.134h-19.2v2.134z"></path>
        </symbol>
        <symbol id="icon-menu-close" viewBox="0 0 32 32">
            <path d="M23.734 10.304l-1.504-1.504-5.963 5.962-5.962-5.962-1.504 1.504 5.962 5.962-5.962 5.963 1.504 1.504 5.962-5.963 5.963 5.963 1.504-1.504-5.963-5.963 5.963-5.962z"></path>
        </symbol>
        <symbol id="icon-modal-contacts-close" viewBox="0 0 32 32">
            <path d="m26.667 7.303-1.97-1.97-7.808 7.808-7.808-7.808-1.97 1.97 7.808 7.808-7.808 7.808 1.97 1.97 7.808-7.808 7.808 7.808 1.97-1.97-7.808-7.808 7.808-7.808z"/>
        </symbol>
        <symbol id="icon-points" viewBox="0 0 139 32">
            <path d="M85.333 16c0 8.837-7.163 16-16 16s-16-7.163-16-16c0-8.837 7.163-16 16-16s16 7.163 16 16z"></path>
            <path d="M32 16c0 8.837-7.163 16-16 16s-16-7.163-16-16c0-8.837 7.163-16 16-16s16 7.163 16 16z"></path>
            <path d="M138.667 16c0 8.837-7.163 16-16 16s-16-7.163-16-16c0-8.837 7.163-16 16-16s16 7.163 16 16z"></path>
        </symbol>
        <symbol id="icon-icecream" viewBox="0 0 32 32">
            <path d="M20.804 10.742c1.448-3.62-1.789-4.217-1.789-4.174 1.022-2.556-1.022-4.26-2.896-4.26s-1.789 0.853-1.789 0.853 1.022-0.213 1.022 0.596c0 0.81-0.938 0.767-1.874 1.704-0.938 0.937-0.49 0.81-0.554 0.81 1.948-0.128 3.088 1.885 5.239 1.149-2.13 1.065-2.641-0.628-4.941-0.713-0.298 0-2.002-0.33-2.002 2.928 2.492 0.288 3.578 2.002 6.943 1.619-3.791 1.405-8.54-4.409-9.2 1.959 0 1.363 1.021 2.048 1.021 2.048s11.799 0 11.757 0c2.342-1.022 1.193-4.732-0.937-4.519zM16.072 31l5.328-15.069h-10.773l5.445 15.069z"></path>
        </symbol>
    </defs>
</svg>